<mxfile host="65bd71144e">
    <diagram name="Diagrama de Classes" id="0">
        <mxGraphModel dx="668" dy="476" grid="1" gridSize="10" guides="1" tooltips="1" connect="1" arrows="1" fold="1" page="1" pageScale="1" pageWidth="827" pageHeight="1169" math="0" shadow="0">
            <root>
                <mxCell id="0"/>
                <mxCell id="1" parent="0"/>
                <mxCell id="3" value="Diretoria" style="swimlane;html=1;" parent="1" vertex="1">
                    <mxGeometry x="150" y="160" width="180" height="240" as="geometry"/>
                </mxCell>
                <mxCell id="4" value="nome: String&#10;id_diretoria: int &lt;&lt;PK&gt;&gt;" style="text;strokeColor=none;fillColor=none;align=left;verticalAlign=top;whiteSpace=wrap;html=1;" parent="3" vertex="1">
                    <mxGeometry x="10" y="30" width="160" height="40" as="geometry"/>
                </mxCell>
                <mxCell id="5" value="adicionarTuring(valor: Double): void&#10;removerTuring(valor: Double): void&#10;adicionarItemEcommerce(item: String, quantidade: int): void&#10;removerItemEcommerce(item: String): void&#10;gerarRelatorioFinanceiro(): String" style="text;strokeColor=none;fillColor=none;align=left;verticalAlign=top;whiteSpace=wrap;html=1;" parent="3" vertex="1">
                    <mxGeometry x="10" y="70" width="160" height="100" as="geometry"/>
                </mxCell>
                <mxCell id="6" value="FuncionÃ¡rios" style="swimlane;html=1;" parent="1" vertex="1">
                    <mxGeometry x="420" y="150" width="180" height="250" as="geometry"/>
                </mxCell>
                <mxCell id="7" value="nome: String&#10;id_funcionario: int &lt;&lt;PK&gt;&gt;&#10;salario: Double&#10;id_diretoria: int &lt;&lt;FK&gt;&gt;&#10;dataNascimento: Date" style="text;strokeColor=none;fillColor=none;align=left;verticalAlign=top;whiteSpace=wrap;html=1;" parent="6" vertex="1">
                    <mxGeometry x="10" y="30" width="160" height="80" as="geometry"/>
                </mxCell>
                <mxCell id="8" value="verExtrato(): String&#10;verSaldo(): Double&#10;verHistoricoPedido(): List&lt;String&gt;&#10;comprarEcommerce(item: String, quantidade: int): String&#10;pedirAumento(solicitacao: String): String" style="text;strokeColor=none;fillColor=none;align=left;verticalAlign=top;whiteSpace=wrap;html=1;" parent="6" vertex="1">
                    <mxGeometry x="10" y="110" width="160" height="100" as="geometry"/>
                </mxCell>
                <mxCell id="9" value="" style="edgeStyle=orthogonalEdgeStyle;rounded=0;orthogonalLoop=1;jettySize=auto;html=1;" parent="1" source="3" edge="1">
                    <mxGeometry relative="1" as="geometry">
                        <mxPoint x="420" y="280" as="targetPoint"/>
                    </mxGeometry>
                </mxCell>
            </root>
        </mxGraphModel>
    </diagram>
</mxfile>